<?xml version="1.0" encoding="iso-8859-1"?>
<!-- Uploaded to: SVG Repo, www.svgrepo.com, Generator: SVG Repo Mixer Tools -->
<svg version="1.1" id="Layer_1" xmlns="http://www.w3.org/2000/svg" xmlns:xlink="http://www.w3.org/1999/xlink" 
	 viewBox="0 0 512 512" xml:space="preserve">
<g>
	<path style="fill:#E25749;" d="M365.017,343.585c-2.214,0-4.427-0.844-6.116-2.534c-3.378-3.378-3.378-8.854,0.001-12.23
		l18.715-18.716c1.622-1.623,3.822-2.533,6.116-2.533h17.561c4.778,0,8.649,3.872,8.649,8.649s-3.871,8.649-8.649,8.649h-13.98
		l-16.183,16.182C369.444,342.741,367.23,343.585,365.017,343.585z"/>
	<path style="fill:#E25749;" d="M146.978,343.585c-2.214,0-4.427-0.844-6.116-2.534l-16.181-16.182H110.7
		c-4.778,0-8.649-3.872-8.649-8.649s3.871-8.649,8.649-8.649h17.563c2.294,0,4.493,0.911,6.116,2.533l18.715,18.716
		c3.378,3.378,3.378,8.854-0.001,12.23C151.405,342.741,149.191,343.585,146.978,343.585z"/>
</g>
<path style="fill:#4EBFED;" d="M356.328,336.67H153.372l11.347-48.098c2.433-10.332,11.658-17.632,22.279-17.632h135.692
	c10.621,0,19.846,7.299,22.279,17.632L356.328,336.67z"/>
<path style="fill:#92DDF4;" d="M356.328,336.67H242.834l28.956-65.73h50.9c10.621,0,19.846,7.299,22.279,17.632L356.328,336.67z"/>
<path style="fill:#E25749;" d="M356.324,342.437c-2.614,0-4.98-1.789-5.607-4.442l-11.359-48.098
	c-1.83-7.768-8.683-13.191-16.668-13.191H186.998c-7.984,0-14.838,5.423-16.667,13.188l-11.348,48.101
	c-0.731,3.1-3.826,5.023-6.936,4.287c-3.1-0.731-5.019-3.837-4.287-6.935l11.347-48.098c3.06-12.996,14.531-22.074,27.891-22.074
	h135.692c13.361,0,24.83,9.078,27.893,22.076l11.357,48.095c0.732,3.1-1.187,6.204-4.286,6.936
	C357.208,342.386,356.762,342.437,356.324,342.437z"/>
<g>
	<rect x="133.766" y="427.444" style="fill:#415E72;" width="43.82" height="54.106"/>
	<rect x="334.416" y="427.444" style="fill:#415E72;" width="43.82" height="54.106"/>
</g>
<polyline style="fill:#CFDCE5;" points="464.249,140.31 47.751,140.31 47.751,238.328 464.249,238.328 "/>
<g>
	<polyline style="fill:#C1CED6;" points="464.249,140.31 47.751,140.31 47.751,158.76 464.249,158.76 	"/>
	<polyline style="fill:#C1CED6;" points="464.249,192.202 47.751,192.202 47.751,202.581 464.249,202.581 	"/>
	<polyline style="fill:#C1CED6;" points="464.249,215.265 47.751,215.265 47.751,225.644 464.249,225.644 	"/>
	<polyline style="fill:#C1CED6;" points="464.249,169.139 47.751,169.139 47.751,179.517 464.249,179.517 	"/>
</g>
<polygon style="fill:#FF6F52;" points="464.252,116.382 464.252,147.413 47.755,147.413 47.755,116.382 256.003,35.165 "/>
<polygon style="fill:#E25749;" points="464.252,121.387 464.252,147.413 461.173,147.413 256.003,67.396 50.822,147.413 
	47.755,147.413 47.755,121.387 256.003,40.158 "/>
<g>
	<path style="fill:#415E72;" d="M464.249,481.81c-4.778,0-8.649-3.872-8.649-8.649V122.737c0-4.776,3.871-8.649,8.649-8.649
		c4.778,0,8.649,3.872,8.649,8.649V473.16C472.898,477.937,469.025,481.81,464.249,481.81z"/>
	<path style="fill:#415E72;" d="M47.75,481.81c-4.778,0-8.649-3.872-8.649-8.649V122.737c0-4.776,3.871-8.649,8.649-8.649
		s8.649,3.872,8.649,8.649V473.16C56.399,477.937,52.528,481.81,47.75,481.81z"/>
	<polygon style="fill:#415E72;" points="502.782,145.026 256,48.779 9.218,145.026 0,121.391 256,21.547 512,121.391 	"/>
</g>
<rect x="4.844" y="473.155" style="fill:#344F5E;" width="502.304" height="17.297"/>
<path style="fill:#FF6F52;" d="M383.998,419.694v-65.776c0-10.482-8.499-18.981-18.981-18.981H146.978
	c-10.482,0-18.981,8.499-18.981,18.981v65.776"/>
<g>
	<circle style="fill:#FCD577;" cx="171.821" cy="383.37" r="19.604"/>
	<circle style="fill:#FCD577;" cx="340.182" cy="383.37" r="19.604"/>
</g>
<rect x="113.01" y="418.542" style="fill:#CFDCE5;" width="285.983" height="27.676"/>
<g>
	<rect x="208.145" y="366.327" style="fill:#314A5F;" width="95.712" height="12.685"/>
	<rect x="208.145" y="389.39" style="fill:#314A5F;" width="95.712" height="12.685"/>
</g>
</svg>